<svg width="955" height="2045" viewBox="0 0 955 2045" fill="none" xmlns="http://www.w3.org/2000/svg">
<path d="M568.036 0C576.72 11.7694 584.296 20.7488 600.245 23.3037L635.036 1771.11H634.542C634.869 1775.93 635.036 1780.79 635.036 1785.67C635.036 1928.86 492.878 2044.93 317.518 2044.93C142.157 2044.93 8.08191e-05 1928.86 0 1785.67C0 1642.49 142.157 1526.42 317.518 1526.42C385.277 1526.42 448.079 1543.75 499.638 1573.27L534.326 23.3037C551.441 21.7778 559.375 11.6746 568.036 0ZM317.518 1612.68C200.504 1612.68 105.646 1690.13 105.646 1785.67C105.647 1881.22 200.504 1958.67 317.518 1958.67C434.531 1958.67 529.39 1881.22 529.39 1785.67C529.39 1690.13 434.531 1612.68 317.518 1612.68ZM647.089 781.243C821.56 808.669 955.003 959.676 955.003 1141.85C955.003 1316.81 831.915 1463.03 667.608 1498.63L647.089 781.243ZM470.384 1494.43C264.745 1449.87 110.694 1266.88 110.694 1047.9C110.694 819.898 277.705 630.905 496.065 596.578L470.384 1494.43ZM635.08 595.965L635.117 597.301L634.526 597.315L634.485 595.876C634.684 595.905 634.882 595.935 635.08 595.965ZM621.579 21.4639C658.061 19.7924 694.51 25.3643 728.8 37.8535C763.089 50.3427 794.534 69.4994 821.299 94.207C848.064 118.915 869.614 148.679 884.692 181.763C899.77 214.847 908.075 250.588 909.121 286.903C910.167 323.218 903.935 359.38 890.787 393.279C877.639 427.178 857.838 458.136 832.54 484.348C807.242 510.559 776.953 531.499 743.439 545.946C709.926 560.394 673.858 568.06 637.341 568.497L636.377 486.232C661.917 485.927 687.142 480.566 710.581 470.462C734.02 460.358 755.204 445.713 772.896 427.381C790.589 409.049 804.437 387.397 813.633 363.688C822.828 339.98 827.188 314.689 826.456 289.291C825.724 263.893 819.916 238.895 809.371 215.757C798.826 192.618 783.753 171.803 765.034 154.522C746.315 137.242 724.324 123.844 700.342 115.109C676.36 106.375 650.868 102.478 625.354 103.646L621.579 21.4639ZM399.082 180.606C416.779 180.606 431.125 194.953 431.125 212.649C431.125 230.346 416.779 244.692 399.082 244.692C381.385 244.692 367.039 230.346 367.039 212.649C367.039 194.953 381.385 180.606 399.082 180.606ZM515.147 238.865H432.235C438.764 232.061 442.777 222.825 442.777 212.65C442.777 207.488 441.742 202.567 439.872 198.083H516.359L515.147 238.865ZM399.082 64.0859C416.779 64.0859 431.125 78.4322 431.125 96.1289C431.125 113.826 416.779 128.172 399.082 128.172C381.385 128.172 367.039 113.826 367.039 96.1289C367.039 78.4322 381.385 64.0859 399.082 64.0859ZM515.147 122.345H432.235C438.764 115.541 442.777 106.304 442.777 96.1299C442.777 90.9678 441.743 86.0467 439.873 81.5625H516.359L515.147 122.345Z" fill="black"/>
</svg>
